# xmcd
#
# Track frame offsets: 
#        150
#        15818
#        34268
#        54128
#        68251
#        84436
#        102841
#        123804
#        140304
#        159429
#        172322
#        189310
#        205480
#        216145
#
# Disc length: 3120 seconds
#
# Revision: 0
# Processed by: cddbd v1.5.2PL0 Copyright (c) Steve Scherf et al.
# Submitted via: ExactAudioCopyFreeDBPlugin 1.0
#
DISCID=ac0c2e0e
DTITLE=Various Artist - 28. Blues Baltica Bluesfest 2017
DYEAR=2017
DGENRE=Sampler Blues
TTITLE0=Shawn Holt and The Teardrops - Daddy Told Me
TTITLE1=Mike Bjorklof and The Blue Strip - Troublemaker
TTITLE2=Slawek Wierzcholski and The Blues Nightshift - Working Like Craz
TTITLE2=y
TTITLE3=Chris Kramer and Beatboxin' Blues - Homesick James
TTITLE4=Andy Egert Blues Band - I'm A Bluesman
TTITLE5=Daniel De Vita Band - Mother Earth
TTITLE6=Trudy Lynn and Band - Red Light
TTITLE7=Georg Schroeter and Marc Breitfelder - Sugar and Spice
TTITLE8=Ida Bang and The Blue Tears - Possibilities
TTITLE9=Jonn Richardson Band - Wild Ride
TTITLE10=Brian Keith Wallen - Give Me Peace
TTITLE11=Spirit Of The Blues - Palace Of The King
TTITLE12=Gaffoot - Pick Me Up
TTITLE13=The Steepwarter Band - Walk In The Light
EXTD=
EXTT0=
EXTT1=
EXTT2=
EXTT3=
EXTT4=
EXTT5=
EXTT6=
EXTT7=
EXTT8=
EXTT9=
EXTT10=
EXTT11=
EXTT12=
EXTT13=
PLAYORDER=
